<svg xmlns="http://www.w3.org/2000/svg" fill="none" viewBox="0 0 24 24"><path fill="#000000" fill-rule="evenodd" d="M12 5C9.92438 5 9 5.5 9 5.5C7.05525 3.78091 5.82206 3.19087 3.5 2.5C2.59849 4.63672 2.44934 5.83948 2.5 8C2.5 8 1 9.1688 1 13C1 19.6226 6.48809 21.5 12 21.5C17.5119 21.5 23 19.6226 23 13C23 9.1688 21.5 8 21.5 8C21.5507 5.83948 21.4015 4.63672 20.5 2.5C18.1779 3.19087 16.9448 3.78091 15 5.5C15 5.5 14.0756 5 12 5ZM9.94981 11.3342C7.25665 11.0196 4.31748 10.6762 4.00001 14.5002C3.57613 19.6061 8.39445 19.5441 11.3297 19.5064L11.3301 19.5064C11.5669 19.5033 11.7915 19.5005 12 19.5005C12.2086 19.5005 12.4331 19.5033 12.6699 19.5064L12.6703 19.5064C15.6056 19.5441 20.4239 19.6061 20 14.5002C19.6826 10.6762 16.7434 11.0196 14.0502 11.3342C13.3311 11.4182 12.6295 11.5002 12 11.5002C11.3706 11.5002 10.669 11.4182 9.94981 11.3342ZM9.75 15.25C9.75 16.4926 9.07843 17.5 8.25 17.5C7.42157 17.5 6.75 16.4926 6.75 15.25C6.75 14.0074 7.42157 13 8.25 13C9.07843 13 9.75 14.0074 9.75 15.25ZM15.75 17.5C16.5784 17.5 17.25 16.4926 17.25 15.25C17.25 14.0074 16.5784 13 15.75 13C14.9216 13 14.25 14.0074 14.25 15.25C14.25 16.4926 14.9216 17.5 15.75 17.5Z" clip-rule="evenodd"></path></svg>