<svg xmlns="http://www.w3.org/2000/svg" viewBox="0 0 2500 2500" version="1.1">
	<path d="M 129.868 2.058 C 80.179 10.712, 38.351 42.280, 15.159 88.632 C 10.287 98.369, 4.139 118.044, 1.989 130.783 C 0.026 142.408, 0.011 151.236, 0.005 1250.151 C 0 2347.858, 0.018 2357.905, 1.971 2369.332 C 10.534 2419.419, 41.706 2461.187, 87.875 2484.437 C 98.254 2489.664, 117.613 2495.788, 130.783 2498.011 C 142.408 2499.974, 151.235 2499.989, 1249.761 2499.995 C 2248.501 2499.999, 2357.976 2499.847, 2366.761 2498.439 C 2418.271 2490.181, 2460.625 2459.305, 2484.023 2412.955 C 2490.363 2400.395, 2497.068 2378.624, 2498.564 2365.737 C 2498.933 2362.567, 2499.631 2359.728, 2500.117 2359.428 C 2500.627 2359.113, 2501 1889.870, 2501 1248.882 C 2501 604.171, 2500.629 139.112, 2500.114 139.430 C 2499.626 139.731, 2498.928 137.395, 2498.561 134.239 C 2497.654 126.428, 2493.651 110.906, 2489.942 100.824 C 2478.555 69.864, 2454.460 40.705, 2425.767 23.159 C 2408.704 12.726, 2388.899 5.311, 2369.217 1.989 C 2357.590 0.026, 2349.003 0.011, 1249 0.108 C 174.812 0.203, 140.171 0.263, 129.868 2.058 M 141.447 106.402 C 127.863 110.660, 115.537 121.480, 109.234 134.680 L 105.500 142.500 105.500 1250.075 L 105.500 2357.651 109.693 2366.112 C 115.163 2377.151, 123.600 2385.475, 134.680 2390.766 L 142.500 2394.500 1250.075 2394.500 L 2357.651 2394.500 2366.112 2390.307 C 2377.151 2384.837, 2385.475 2376.400, 2390.766 2365.320 L 2394.500 2357.500 2394.500 1250 L 2394.500 142.500 2390.766 134.680 C 2385.475 123.600, 2377.151 115.163, 2366.112 109.693 L 2357.651 105.500 1251.575 105.316 C 359.658 105.168, 144.715 105.378, 141.447 106.402 M 0.498 1250 C 0.498 1860.775, 0.612 2110.638, 0.750 1805.250 C 0.888 1499.863, 0.888 1000.138, 0.750 694.750 C 0.612 389.363, 0.498 639.225, 0.498 1250 M 1293.302 1042.049 C 1275.029 1045.281, 1260.263 1057.706, 1252.652 1076.255 L 1250.500 1081.500 1249.946 1463 C 1249.343 1878.166, 1249.760 1848.827, 1244.053 1876.763 C 1223.271 1978.496, 1140.324 2059.491, 1037.467 2078.488 C 952.610 2094.161, 866.177 2067.356, 805.478 2006.543 C 769.998 1970.997, 745.401 1925.695, 735.141 1877 C 732.116 1862.645, 731.012 1853.269, 730.012 1833.457 C 729.511 1823.534, 728.630 1813.312, 728.054 1810.742 C 724.033 1792.799, 707.265 1775.987, 689.385 1771.972 C 686.698 1771.369, 680.900 1770.891, 676.500 1770.910 C 661.804 1770.973, 649.779 1776.251, 639.495 1787.152 C 632.460 1794.610, 629.120 1800.340, 626.446 1809.537 C 624.957 1814.660, 624.797 1818.345, 625.298 1835.994 C 628.028 1932.289, 670.412 2024.613, 742.313 2090.891 C 799.953 2144.022, 870.600 2176.314, 949.500 2185.592 C 967.582 2187.719, 1007.755 2188.037, 1025 2186.191 C 1077.235 2180.599, 1126.898 2164.661, 1171.500 2139.178 C 1234.105 2103.408, 1288.125 2044.996, 1318.908 1979.788 C 1337.923 1939.507, 1348.436 1900.972, 1353.225 1854 C 1354.234 1844.110, 1354.500 1762.574, 1354.500 1463.500 C 1354.500 1099.548, 1354.432 1085.277, 1352.663 1079.500 C 1347.590 1062.927, 1333.994 1048.863, 1318.383 1044.038 C 1310.771 1041.685, 1300.130 1040.841, 1293.302 1042.049 M 1854.813 1042.006 C 1783.907 1046.579, 1714.879 1076.174, 1663.714 1123.938 C 1606.603 1177.253, 1573.319 1242.777, 1563.869 1320.500 C 1561.925 1336.495, 1562.208 1376.219, 1564.378 1392 C 1569.025 1425.775, 1576.358 1450.600, 1589.736 1477.844 C 1610.202 1519.522, 1644.582 1556.993, 1690.500 1587.667 C 1730.513 1614.396, 1779.284 1636.938, 1849 1660.925 C 1904.660 1680.076, 1931.982 1690.969, 1961.767 1705.883 C 2035.631 1742.870, 2071.391 1784.146, 2080.559 1843 C 2085.437 1874.314, 2082.371 1910.813, 2072.328 1941 C 2065.305 1962.110, 2051.605 1987.243, 2037.229 2005.390 C 2008.634 2041.485, 1964.235 2068.762, 1918.500 2078.333 C 1872.626 2087.932, 1827.017 2082.502, 1785.207 2062.464 C 1762.464 2051.564, 1744.735 2038.945, 1727 2021.035 C 1697.829 1991.575, 1678.038 1953.871, 1670.555 1913.500 C 1668.605 1902.978, 1667.004 1886.672, 1666.985 1877.144 C 1666.948 1857.645, 1658.497 1841.508, 1642.854 1831.061 C 1627.595 1820.872, 1605.155 1820.105, 1589.055 1829.222 C 1576.004 1836.613, 1565.491 1851.594, 1562.924 1866.457 C 1560.768 1878.941, 1563.379 1912.003, 1568.517 1937.280 C 1589.058 2038.340, 1659.715 2124.230, 1754.717 2163.625 C 1794.807 2180.248, 1830.829 2187.355, 1875 2187.355 C 1906.250 2187.355, 1927.853 2184.655, 1955 2177.357 C 2109.052 2135.943, 2207.802 1986.007, 2184.436 1829 C 2172.222 1746.934, 2125.482 1680.979, 2044.982 1632.220 C 2004.993 1607.998, 1960.963 1588.621, 1894.413 1565.958 C 1848.451 1550.305, 1820.223 1539.067, 1791.500 1524.984 C 1726.168 1492.954, 1689.925 1457.354, 1675.063 1410.611 C 1669.377 1392.728, 1667.718 1380.306, 1667.639 1355 C 1667.563 1330.838, 1669.136 1317.776, 1674.400 1298.857 C 1695.354 1223.545, 1756.992 1165.909, 1833.131 1150.433 C 1924.946 1131.771, 2017.901 1176.472, 2060.254 1259.656 C 2074.271 1287.187, 2080.943 1313.341, 2082.917 1348.500 C 2084.266 1372.512, 2087.728 1381.153, 2100.782 1393.083 C 2117.961 1408.784, 2144.548 1410.831, 2163.854 1397.939 C 2176.079 1389.775, 2184.680 1376.744, 2187.032 1362.820 C 2189.830 1346.265, 2185.753 1307.420, 2178.027 1277 C 2163.112 1218.281, 2132.327 1166.918, 2086.286 1123.938 C 2025.040 1066.763, 1939.641 1036.536, 1854.813 1042.006" stroke="none" fill="#000000" fill-rule="evenodd"></path>
</svg>