<svg xmlns="http://www.w3.org/2000/svg" xmlns:xlink="http://www.w3.org/1999/xlink" width="800" zoomAndPan="magnify" viewBox="0 0 600 449.999984" height="600" preserveAspectRatio="xMidYMid meet" version="1.0"><defs><g/></defs><rect x="-60" width="720" fill="#ffffff" y="-44.999998" height="539.99998" fill-opacity="1"/><rect x="-60" width="720" fill="#ffffff" y="-44.999998" height="539.99998" fill-opacity="1"/><rect x="-60" width="720" fill="#ffffff" y="-44.999998" height="539.99998" fill-opacity="1"/><g fill="#000000" fill-opacity="1"><g transform="translate(188.417969, 243.374981)"><g><path d="M 12 0.5 C 9.09375 0.5 6.675781 -0.0507812 4.75 -1.15625 C 2.832031 -2.257812 1.4375 -3.742188 0.5625 -5.609375 L 4.390625 -10.25 L 4.96875 -10.25 C 5.59375 -8.75 6.476562 -7.5625 7.625 -6.6875 C 8.78125 -5.820312 10.113281 -5.390625 11.625 -5.390625 C 13.332031 -5.390625 14.597656 -5.882812 15.421875 -6.875 C 16.253906 -7.875 16.671875 -9.488281 16.671875 -11.71875 L 16.671875 -34.265625 L 23.421875 -34.265625 L 23.421875 -11.609375 C 23.421875 -7.460938 22.476562 -4.40625 20.59375 -2.4375 C 18.707031 -0.476562 15.84375 0.5 12 0.5 Z M 12 0.5 "/></g></g><g transform="translate(216.074217, 243.374981)"><g><path d="M 15.03125 0.5 C 12.5 0.5 10.273438 -0.0195312 8.359375 -1.0625 C 6.441406 -2.101562 4.957031 -3.628906 3.90625 -5.640625 C 2.851562 -7.648438 2.328125 -10.078125 2.328125 -12.921875 C 2.328125 -15.765625 2.851562 -18.191406 3.90625 -20.203125 C 4.957031 -22.222656 6.441406 -23.75 8.359375 -24.78125 C 10.273438 -25.820312 12.5 -26.34375 15.03125 -26.34375 C 17.5625 -26.34375 19.78125 -25.820312 21.6875 -24.78125 C 23.601562 -23.75 25.09375 -22.222656 26.15625 -20.203125 C 27.21875 -18.191406 27.75 -15.765625 27.75 -12.921875 C 27.75 -10.078125 27.21875 -7.648438 26.15625 -5.640625 C 25.09375 -3.628906 23.601562 -2.101562 21.6875 -1.0625 C 19.78125 -0.0195312 17.5625 0.5 15.03125 0.5 Z M 15.03125 -5.015625 C 19.039062 -5.015625 21.046875 -7.648438 21.046875 -12.921875 C 21.046875 -15.648438 20.53125 -17.648438 19.5 -18.921875 C 18.46875 -20.203125 16.976562 -20.84375 15.03125 -20.84375 C 11.007812 -20.84375 9 -18.203125 9 -12.921875 C 9 -7.648438 11.007812 -5.015625 15.03125 -5.015625 Z M 15.03125 -5.015625 "/></g></g><g transform="translate(246.12109, 243.374981)"><g><path d="M 3.734375 0 L 3.734375 -25.859375 L 9.96875 -25.859375 L 9.96875 -22.0625 L 10.453125 -21.9375 C 12.066406 -24.875 14.675781 -26.34375 18.28125 -26.34375 C 21.269531 -26.34375 23.460938 -25.53125 24.859375 -23.90625 C 26.253906 -22.28125 26.953125 -19.914062 26.953125 -16.8125 L 26.953125 0 L 20.46875 0 L 20.46875 -16.015625 C 20.46875 -17.734375 20.125 -18.96875 19.4375 -19.71875 C 18.75 -20.476562 17.644531 -20.859375 16.125 -20.859375 C 14.269531 -20.859375 12.820312 -20.253906 11.78125 -19.046875 C 10.738281 -17.847656 10.21875 -15.960938 10.21875 -13.390625 L 10.21875 0 Z M 3.734375 0 "/></g></g><g transform="translate(276.402338, 243.374981)"><g><path d="M 10.078125 0.5 C 8.421875 0.5 6.984375 0.191406 5.765625 -0.421875 C 4.546875 -1.035156 3.609375 -1.929688 2.953125 -3.109375 C 2.296875 -4.285156 1.96875 -5.703125 1.96875 -7.359375 C 1.96875 -8.890625 2.296875 -10.175781 2.953125 -11.21875 C 3.609375 -12.257812 4.625 -13.109375 6 -13.765625 C 7.375 -14.429688 9.171875 -14.945312 11.390625 -15.3125 C 12.941406 -15.5625 14.117188 -15.832031 14.921875 -16.125 C 15.722656 -16.425781 16.265625 -16.765625 16.546875 -17.140625 C 16.828125 -17.515625 16.96875 -17.988281 16.96875 -18.5625 C 16.96875 -19.394531 16.675781 -20.03125 16.09375 -20.46875 C 15.519531 -20.90625 14.5625 -21.125 13.21875 -21.125 C 11.78125 -21.125 10.410156 -20.800781 9.109375 -20.15625 C 7.816406 -19.519531 6.695312 -18.675781 5.75 -17.625 L 5.28125 -17.625 L 2.5625 -21.734375 C 3.875 -23.179688 5.472656 -24.3125 7.359375 -25.125 C 9.253906 -25.9375 11.316406 -26.34375 13.546875 -26.34375 C 16.972656 -26.34375 19.453125 -25.613281 20.984375 -24.15625 C 22.515625 -22.707031 23.28125 -20.648438 23.28125 -17.984375 L 23.28125 -6.75 C 23.28125 -5.59375 23.785156 -5.015625 24.796875 -5.015625 C 25.191406 -5.015625 25.578125 -5.085938 25.953125 -5.234375 L 26.28125 -5.140625 L 26.75 -0.609375 C 26.382812 -0.378906 25.878906 -0.1875 25.234375 -0.03125 C 24.597656 0.113281 23.898438 0.1875 23.140625 0.1875 C 21.585938 0.1875 20.378906 -0.109375 19.515625 -0.703125 C 18.648438 -1.296875 18.03125 -2.226562 17.65625 -3.5 L 17.15625 -3.546875 C 15.894531 -0.847656 13.535156 0.5 10.078125 0.5 Z M 12.140625 -4.359375 C 13.640625 -4.359375 14.835938 -4.863281 15.734375 -5.875 C 16.640625 -6.882812 17.09375 -8.285156 17.09375 -10.078125 L 17.09375 -12.703125 L 16.640625 -12.796875 C 16.253906 -12.484375 15.742188 -12.222656 15.109375 -12.015625 C 14.472656 -11.804688 13.5625 -11.597656 12.375 -11.390625 C 10.96875 -11.160156 9.957031 -10.757812 9.34375 -10.1875 C 8.726562 -9.613281 8.421875 -8.804688 8.421875 -7.765625 C 8.421875 -6.648438 8.75 -5.800781 9.40625 -5.21875 C 10.0625 -4.644531 10.972656 -4.359375 12.140625 -4.359375 Z M 12.140625 -4.359375 "/></g></g><g transform="translate(303.660148, 243.374981)"><g><path d="M 17.84375 -6.171875 L 19.53125 -1.359375 C 18.820312 -0.785156 17.9375 -0.332031 16.875 0 C 15.8125 0.332031 14.609375 0.5 13.265625 0.5 C 10.472656 0.5 8.347656 -0.257812 6.890625 -1.78125 C 5.441406 -3.3125 4.71875 -5.53125 4.71875 -8.4375 L 4.71875 -20.71875 L 0.78125 -20.71875 L 0.78125 -25.875 L 4.71875 -25.875 L 4.71875 -30.921875 L 11.203125 -31.96875 L 11.203125 -25.875 L 18.546875 -25.875 L 18.546875 -20.71875 L 11.203125 -20.71875 L 11.203125 -8.90625 C 11.203125 -7.625 11.46875 -6.691406 12 -6.109375 C 12.53125 -5.523438 13.304688 -5.234375 14.328125 -5.234375 C 15.484375 -5.234375 16.488281 -5.546875 17.34375 -6.171875 Z M 17.84375 -6.171875 "/></g></g><g transform="translate(323.746084, 243.374981)"><g><path d="M 3.734375 0 L 3.734375 -36.234375 L 10.21875 -36.234375 L 10.21875 -22.484375 L 10.71875 -22.390625 C 11.570312 -23.648438 12.625 -24.625 13.875 -25.3125 C 15.125 -26 16.632812 -26.34375 18.40625 -26.34375 C 24.101562 -26.34375 26.953125 -23.109375 26.953125 -16.640625 L 26.953125 0 L 20.46875 0 L 20.46875 -15.828125 C 20.46875 -17.585938 20.113281 -18.863281 19.40625 -19.65625 C 18.707031 -20.457031 17.613281 -20.859375 16.125 -20.859375 C 14.3125 -20.859375 12.875 -20.253906 11.8125 -19.046875 C 10.75 -17.835938 10.21875 -15.953125 10.21875 -13.390625 L 10.21875 0 Z M 3.734375 0 "/></g></g><g transform="translate(354.027332, 243.374981)"><g><path d="M 10.078125 0.5 C 8.421875 0.5 6.984375 0.191406 5.765625 -0.421875 C 4.546875 -1.035156 3.609375 -1.929688 2.953125 -3.109375 C 2.296875 -4.285156 1.96875 -5.703125 1.96875 -7.359375 C 1.96875 -8.890625 2.296875 -10.175781 2.953125 -11.21875 C 3.609375 -12.257812 4.625 -13.109375 6 -13.765625 C 7.375 -14.429688 9.171875 -14.945312 11.390625 -15.3125 C 12.941406 -15.5625 14.117188 -15.832031 14.921875 -16.125 C 15.722656 -16.425781 16.265625 -16.765625 16.546875 -17.140625 C 16.828125 -17.515625 16.96875 -17.988281 16.96875 -18.5625 C 16.96875 -19.394531 16.675781 -20.03125 16.09375 -20.46875 C 15.519531 -20.90625 14.5625 -21.125 13.21875 -21.125 C 11.78125 -21.125 10.410156 -20.800781 9.109375 -20.15625 C 7.816406 -19.519531 6.695312 -18.675781 5.75 -17.625 L 5.28125 -17.625 L 2.5625 -21.734375 C 3.875 -23.179688 5.472656 -24.3125 7.359375 -25.125 C 9.253906 -25.9375 11.316406 -26.34375 13.546875 -26.34375 C 16.972656 -26.34375 19.453125 -25.613281 20.984375 -24.15625 C 22.515625 -22.707031 23.28125 -20.648438 23.28125 -17.984375 L 23.28125 -6.75 C 23.28125 -5.59375 23.785156 -5.015625 24.796875 -5.015625 C 25.191406 -5.015625 25.578125 -5.085938 25.953125 -5.234375 L 26.28125 -5.140625 L 26.75 -0.609375 C 26.382812 -0.378906 25.878906 -0.1875 25.234375 -0.03125 C 24.597656 0.113281 23.898438 0.1875 23.140625 0.1875 C 21.585938 0.1875 20.378906 -0.109375 19.515625 -0.703125 C 18.648438 -1.296875 18.03125 -2.226562 17.65625 -3.5 L 17.15625 -3.546875 C 15.894531 -0.847656 13.535156 0.5 10.078125 0.5 Z M 12.140625 -4.359375 C 13.640625 -4.359375 14.835938 -4.863281 15.734375 -5.875 C 16.640625 -6.882812 17.09375 -8.285156 17.09375 -10.078125 L 17.09375 -12.703125 L 16.640625 -12.796875 C 16.253906 -12.484375 15.742188 -12.222656 15.109375 -12.015625 C 14.472656 -11.804688 13.5625 -11.597656 12.375 -11.390625 C 10.96875 -11.160156 9.957031 -10.757812 9.34375 -10.1875 C 8.726562 -9.613281 8.421875 -8.804688 8.421875 -7.765625 C 8.421875 -6.648438 8.75 -5.800781 9.40625 -5.21875 C 10.0625 -4.644531 10.972656 -4.359375 12.140625 -4.359375 Z M 12.140625 -4.359375 "/></g></g><g transform="translate(381.285142, 243.374981)"><g><path d="M 3.734375 0 L 3.734375 -25.859375 L 9.96875 -25.859375 L 9.96875 -22.0625 L 10.453125 -21.9375 C 12.066406 -24.875 14.675781 -26.34375 18.28125 -26.34375 C 21.269531 -26.34375 23.460938 -25.53125 24.859375 -23.90625 C 26.253906 -22.28125 26.953125 -19.914062 26.953125 -16.8125 L 26.953125 0 L 20.46875 0 L 20.46875 -16.015625 C 20.46875 -17.734375 20.125 -18.96875 19.4375 -19.71875 C 18.75 -20.476562 17.644531 -20.859375 16.125 -20.859375 C 14.269531 -20.859375 12.820312 -20.253906 11.78125 -19.046875 C 10.738281 -17.847656 10.21875 -15.960938 10.21875 -13.390625 L 10.21875 0 Z M 3.734375 0 "/></g></g></g></svg>