<svg xmlns="http://www.w3.org/2000/svg" viewBox="0 0 2500 2500" version="1.1">
	<path d="M 152.675 7.054 C 89.366 14.435, 36.615 59.129, 19.541 119.853 C 14.229 138.749, 12.403 163.715, 14.925 183 C 19.537 218.283, 301.634 2093.934, 303.498 2101.717 C 315.659 2152.484, 352.729 2193.471, 402.977 2211.707 C 412.747 2215.253, 907.394 2389.878, 1095.500 2456.188 C 1153.250 2476.546, 1203.875 2494.076, 1208 2495.143 C 1232.868 2501.577, 1260.502 2501.510, 1286.177 2494.955 C 1298.947 2491.694, 2095.274 2210.402, 2105.957 2205.378 C 2123.974 2196.905, 2142.299 2183.126, 2155.305 2168.272 C 2173.300 2147.719, 2186.295 2122.048, 2191.392 2096.988 C 2192.232 2092.856, 2257.346 1660.631, 2336.090 1136.488 C 2469.406 249.100, 2479.294 182.392, 2479.744 167.400 C 2480.278 149.606, 2479.216 138.787, 2475.481 123.973 C 2468.509 96.326, 2455.343 73.342, 2434.512 52.455 C 2410.720 28.599, 2384.439 14.824, 2350.063 8.191 C 2342.136 6.661, 2260.464 6.528, 1250.500 6.398 C 650.450 6.321, 156.429 6.616, 152.675 7.054 M 156.982 112.037 C 143.905 115.143, 130.089 126.300, 123.504 139.071 C 120.330 145.229, 118 154.608, 118 161.231 C 118 169.094, 403.609 2072.225, 405.962 2080.042 C 409.737 2092.584, 419.909 2104.693, 431.394 2110.316 C 436.003 2112.574, 1206.236 2384.964, 1228.500 2392.211 C 1239.081 2395.655, 1251.084 2396.257, 1260 2393.791 C 1272.450 2390.348, 2057.977 2112.559, 2063.473 2109.655 C 2072.635 2104.815, 2079.976 2097.010, 2084.782 2087 C 2088.345 2079.578, 2089.183 2076.408, 2091.394 2062 C 2113.861 1915.606, 2375.996 165.048, 2375.985 161.479 C 2375.965 154.746, 2373.578 145.077, 2370.369 138.731 C 2367.036 132.139, 2354.080 119.238, 2347.664 116.122 C 2345.004 114.830, 2340.504 113.155, 2337.664 112.399 C 2333.297 111.236, 2164.923 111.037, 1246.500 111.112 C 649.200 111.161, 158.917 111.577, 156.982 112.037 M 660.105 424.579 C 651.628 426.864, 645.073 430.893, 637.483 438.483 C 626.471 449.495, 622 460.039, 622 475 C 622 496.868, 635.021 515.641, 656.219 524.334 L 661.500 526.500 1146.416 527 L 1631.332 527.500 1272.916 742.730 C 1075.787 861.106, 911.575 959.870, 908 962.206 C 899.244 967.926, 886.464 980.835, 880.484 990 C 874.353 999.395, 868.556 1012.686, 865.705 1023.883 C 862.649 1035.884, 862.670 1060.783, 865.747 1072.031 C 876.523 1111.437, 902.864 1138.194, 941.825 1149.310 L 949.500 1151.500 1302.750 1151.760 L 1656 1152.019 1655.946 1154.260 C 1655.916 1155.492, 1635.538 1298.656, 1610.660 1472.403 L 1565.428 1788.306 1406.964 1833.687 L 1248.500 1879.068 1089.692 1833.808 C 1002.348 1808.914, 930.515 1788.311, 930.064 1788.023 C 929.612 1787.736, 918.340 1723.375, 905.015 1645 C 887.630 1542.752, 880.139 1500.898, 878.495 1496.828 C 867.428 1469.436, 833.978 1456.656, 807.500 1469.704 C 789.669 1478.490, 778 1496.869, 778 1516.167 C 778 1522.406, 826.228 1806.572, 829.057 1817 C 834.957 1838.753, 851.089 1861.158, 870.190 1874.129 C 884.646 1883.946, 885.838 1884.322, 1059.500 1933.834 C 1150.250 1959.708, 1227.200 1981.413, 1230.500 1982.069 C 1241.180 1984.191, 1259.093 1983.566, 1271 1980.655 C 1293.067 1975.260, 1599.874 1887.138, 1607.082 1884.124 C 1634.406 1872.698, 1658.183 1845.578, 1665.954 1816.972 C 1668.255 1808.503, 1759.648 1170.716, 1760.587 1156.574 C 1761.320 1145.534, 1759.210 1130.363, 1755.395 1119.240 C 1743.688 1085.113, 1717.594 1060.929, 1681.500 1050.755 L 1673.500 1048.500 1320.791 1048 L 968.083 1047.500 1078.791 981.058 C 1534.603 707.501, 1691.212 613.249, 1695.872 609.681 C 1714.553 595.378, 1727.226 575.757, 1733.725 551.074 C 1735.817 543.130, 1736.248 539.202, 1736.260 528 C 1736.289 498.697, 1726.799 474.980, 1707 454.875 C 1692.683 440.337, 1676.622 430.847, 1657.658 425.720 L 1649.500 423.515 1157.500 423.320 C 729.723 423.150, 664.796 423.314, 660.105 424.579" stroke="none" fill="#000000" fill-rule="evenodd"></path>
</svg>