<svg xmlns="http://www.w3.org/2000/svg" viewBox="0 0 2500 2500" version="1.1">
	<path d="M 146.500 7.157 C 98.172 12.569, 53.850 41.982, 28.799 85.265 C 13.910 110.990, 6.040 147.099, 9.055 175.863 C 10.531 189.953, 294.385 2082.598, 296.957 2095.500 C 302.125 2121.429, 313.379 2144.555, 331.099 2165.661 C 348.067 2185.872, 371.106 2201.927, 396.500 2211.238 C 416.974 2218.744, 1187.401 2490.525, 1194 2492.569 C 1224.649 2502.062, 1255.344 2502.418, 1285.348 2493.627 C 1298.997 2489.629, 2081.745 2213.374, 2094.862 2207.927 C 2127.230 2194.483, 2157.308 2166.153, 2173.636 2133.731 C 2177.890 2125.283, 2184.310 2106.277, 2186.380 2096 C 2189.571 2080.160, 2473.220 185.803, 2474.278 173.269 C 2475.572 157.919, 2474.362 142.946, 2470.499 126.500 C 2459.618 80.188, 2428.501 41.711, 2385.554 21.463 C 2368.369 13.361, 2353.167 9.046, 2334.789 7.053 C 2322.468 5.717, 158.441 5.820, 146.500 7.157 M 148.798 112.931 C 135.461 117.195, 124.686 126.775, 117.960 140.350 C 114.104 148.130, 113.687 149.720, 113.279 158.196 C 112.869 166.701, 125.067 249.073, 255.411 1118 C 333.830 1640.775, 398.650 2071.516, 399.457 2075.202 C 400.263 2078.889, 402.351 2084.733, 404.096 2088.190 C 408.114 2096.150, 418.598 2106.730, 426 2110.295 C 429.025 2111.752, 610.731 2176.186, 829.792 2253.482 C 1115.216 2354.193, 1230.078 2394.302, 1235.118 2395.017 C 1239.917 2395.697, 1244.255 2395.678, 1248.772 2394.957 C 1252.833 2394.308, 1364.795 2355.303, 1538.446 2294.042 C 1694.126 2239.121, 1872.800 2176.098, 1935.500 2153.992 C 1998.200 2131.885, 2052.650 2112.305, 2056.500 2110.481 C 2069.488 2104.325, 2081.111 2089.609, 2083.921 2075.763 C 2084.509 2072.868, 2149.165 1642.775, 2227.602 1120 C 2326.590 460.252, 2370.212 167.053, 2370.207 161.500 C 2370.185 139.553, 2355.309 119.500, 2334.217 112.985 C 2327.822 111.010, 2322.349 111, 1241.145 111.054 C 192.448 111.106, 154.301 111.171, 148.798 112.931 M 712 424.453 C 670.928 432.242, 638.906 462.328, 628.795 502.625 C 626.961 509.936, 626.573 514.232, 626.596 527 L 626.625 542.500 670.333 804 C 694.373 947.825, 714.974 1069.325, 716.114 1074 C 719.914 1089.582, 729.207 1106.629, 740.623 1118.959 C 752.845 1132.161, 772.984 1144.239, 791 1149.172 L 799.500 1151.500 1225.071 1151.758 L 1650.641 1152.016 1605.256 1469.758 C 1580.294 1644.516, 1559.562 1787.788, 1559.185 1788.140 C 1558.808 1788.493, 1487.342 1809.096, 1400.371 1833.926 L 1242.241 1879.072 1083.871 1833.884 C 996.767 1809.030, 924.993 1788.202, 924.373 1787.598 C 923.753 1786.994, 912.813 1724.400, 900.062 1648.500 C 887.312 1572.600, 876.222 1507.621, 875.420 1504.103 C 872.098 1489.542, 862.222 1477.383, 847.843 1470.150 C 825.875 1459.100, 798.400 1465.161, 784.189 1484.192 C 776.226 1494.855, 773.031 1503.892, 773.012 1515.805 C 772.997 1524.842, 819.799 1804.064, 823.578 1817.481 C 832.244 1848.255, 856.096 1874.102, 886.322 1885.471 C 894.493 1888.544, 1212.221 1979.432, 1222.405 1981.609 C 1231.666 1983.589, 1252.308 1983.597, 1261.500 1981.623 C 1265.350 1980.797, 1342.075 1959.132, 1432 1933.478 C 1549.652 1899.915, 1597.777 1885.772, 1603.619 1883.044 C 1632.541 1869.538, 1654.592 1842.577, 1661.317 1812.500 C 1662.178 1808.650, 1683.469 1661.725, 1708.631 1486 C 1751.649 1185.577, 1754.384 1165.634, 1754.440 1152 C 1754.484 1141.315, 1754.021 1135.460, 1752.681 1129.746 C 1743.036 1088.635, 1712.114 1058.379, 1671.228 1050.047 C 1661.203 1048.004, 1660.446 1048, 1239.093 1048 C 1006.942 1048, 817 1047.715, 817 1047.366 C 817 1046.088, 730.876 530.444, 730.380 528.755 C 729.893 527.096, 757.057 526.996, 1278.184 526.755 L 1826.500 526.500 1832.500 524.117 C 1856.007 514.780, 1869.650 491.596, 1865.963 467.250 C 1863.131 448.545, 1850.622 433.081, 1832.500 425.883 L 1826.500 423.500 1272.500 423.360 C 837.120 423.250, 717.108 423.484, 712 424.453" stroke="none" fill="#000000" fill-rule="evenodd"></path>
</svg>